<svg width="153" height="20" viewBox="0 0 153 20" fill="none" xmlns="http://www.w3.org/2000/svg">
<path d="M77.3608 15.3395C76.8381 15.358 76.3303 15.1693 75.9486 14.8178C75.5594 14.4405 75.3518 13.9114 75.374 13.3713V9.52003H74.1509V8.33987H75.374V6.23111H76.6825V8.33987H78.3875V9.52003H76.6825V12.9495C76.6417 13.2862 76.738 13.6229 76.953 13.8855C77.1161 14.0446 77.3348 14.1334 77.5646 14.1334C77.6684 14.1334 77.7685 14.1223 77.8685 14.0964C77.9649 14.0742 78.0576 14.0446 78.1465 14.0039L78.558 15.1582C78.1725 15.2877 77.7685 15.3506 77.3645 15.3395H77.3608Z" fill="#004D99"/>
<path d="M82.687 15.4542C81.7345 15.4837 80.8152 15.1064 80.1592 14.4146C79.4883 13.7043 79.1325 12.7609 79.1658 11.7879C79.1362 10.8223 79.4809 9.88259 80.1295 9.16858C81.4787 7.79233 83.6878 7.77014 85.0666 9.11308C85.719 9.88629 86.0451 10.8815 85.9821 11.8878L85.9673 12.0283H80.4965C80.4891 12.6425 80.7374 13.2307 81.1785 13.6599C82.0606 14.5071 83.4617 14.4812 84.3105 13.6007C84.4699 13.4342 84.6033 13.2455 84.7034 13.042L85.8672 13.6044C85.567 14.1704 85.1185 14.6439 84.5662 14.9695C83.9954 15.3025 83.3431 15.4727 82.6833 15.4616L82.687 15.4542ZM80.6003 10.9555H84.5922C84.5625 10.4967 84.3513 10.0676 84.0029 9.76791C83.6025 9.43864 83.0948 9.26846 82.5758 9.29436C82.1125 9.28326 81.6603 9.44604 81.3045 9.74571C80.9413 10.0602 80.6929 10.4819 80.6003 10.9518V10.9555Z" fill="#004D99"/>
<path d="M90.4337 15.4542C89.47 15.4801 88.5359 15.1027 87.8651 14.4109C87.1942 13.7006 86.8309 12.7572 86.8569 11.7842C86.8272 10.8075 87.1905 9.8641 87.8651 9.15749C88.5396 8.46567 89.47 8.08831 90.4374 8.11791C91.0971 8.10311 91.7458 8.28809 92.2981 8.64325C92.8318 8.9984 93.2469 9.50525 93.4916 10.0972L92.2981 10.5892C92.0052 9.77901 91.2158 9.25367 90.3521 9.29807C89.7554 9.29807 89.1883 9.56074 88.8028 10.0158C87.9503 11.0443 87.9503 12.5315 88.8028 13.56C89.5886 14.4405 90.9415 14.5219 91.8236 13.7376C92.0571 13.5304 92.2425 13.2714 92.3685 12.9828L93.5323 13.4749C93.2951 14.0742 92.8726 14.5811 92.3314 14.9288C91.7643 15.2877 91.1046 15.469 90.4337 15.4579V15.4542Z" fill="#004D99"/>
<path d="M94.6665 5.16563H95.9749V8.34357L95.9194 9.29806H95.9749C96.1973 8.9392 96.5161 8.64693 96.8905 8.45456C97.2834 8.23628 97.7244 8.11789 98.1766 8.11789C98.9068 8.0698 99.6222 8.33247 100.145 8.84301C100.634 9.41274 100.882 10.1527 100.834 10.9V15.2285H99.5258V11.1515C99.5258 9.91589 98.9698 9.29806 97.8616 9.29806C97.339 9.29806 96.8423 9.53853 96.5198 9.94918C96.1603 10.3746 95.9638 10.9185 95.9749 11.4734V15.2248H94.6665V5.16563Z" fill="#004D99"/>
<path d="M102.365 8.33987H103.614V9.29436H103.67C103.892 8.9355 104.211 8.64323 104.585 8.45085C104.978 8.23258 105.419 8.11419 105.871 8.11419C106.602 8.0661 107.317 8.32877 107.84 8.83931C108.329 9.40904 108.577 10.149 108.529 10.8963V15.2248H107.221V10.9814C107.317 10.1416 106.713 9.38685 105.871 9.29066C105.749 9.27586 105.623 9.27956 105.501 9.29066C104.993 9.28326 104.507 9.51633 104.192 9.91589C103.84 10.3339 103.655 10.8667 103.666 11.4105V15.2174H102.358V8.33247L102.365 8.33987Z" fill="#004D99"/>
<path d="M109.671 11.7842C109.637 10.8075 110 9.86041 110.679 9.15749C111.353 8.46567 112.284 8.09201 113.251 8.11791C114.211 8.08831 115.141 8.46567 115.809 9.15749C117.173 10.6447 117.173 12.9274 115.809 14.4146C115.141 15.1064 114.211 15.4838 113.251 15.4542C112.287 15.4801 111.353 15.1064 110.679 14.4146C110 13.7117 109.637 12.7609 109.671 11.7879V11.7842ZM110.979 11.7842C110.949 12.4464 111.187 13.0938 111.631 13.5822C112.491 14.4738 113.911 14.5034 114.808 13.6451C114.83 13.6229 114.852 13.6044 114.871 13.5822C115.742 12.5463 115.742 11.0332 114.871 9.99729C114.033 9.10569 112.632 9.0576 111.739 9.8937C111.702 9.927 111.668 9.96399 111.635 9.99729C111.187 10.4819 110.953 11.1257 110.979 11.7842Z" fill="#004D99"/>
<path d="M119.259 5.16563V15.2285H117.951V5.16563H119.259Z" fill="#004D99"/>
<path d="M120.382 11.7842C120.349 10.8075 120.712 9.86041 121.391 9.15749C122.065 8.46567 122.996 8.08831 123.963 8.11791C124.923 8.08831 125.853 8.46567 126.52 9.15749C127.884 10.6447 127.884 12.9274 126.52 14.4146C125.853 15.1064 124.923 15.4838 123.963 15.4542C122.999 15.4838 122.065 15.1064 121.391 14.4146C120.712 13.7117 120.349 12.7609 120.382 11.7879V11.7842ZM121.691 11.7842C121.661 12.4464 121.898 13.0938 122.343 13.5822C123.203 14.4738 124.623 14.5034 125.52 13.6451C125.542 13.6229 125.564 13.6044 125.583 13.5822C126.454 12.5463 126.454 11.0332 125.583 9.99729C124.745 9.10569 123.344 9.0576 122.451 9.8937C122.414 9.927 122.38 9.96399 122.347 9.99729C121.902 10.4819 121.665 11.1257 121.695 11.7842H121.691Z" fill="#004D99"/>
<path d="M131.821 18.4878C131.45 18.4878 131.083 18.4397 130.727 18.3398C130.397 18.2473 130.086 18.1067 129.797 17.9255C129.526 17.7553 129.286 17.5407 129.082 17.2965C128.882 17.0524 128.73 16.7786 128.626 16.4826L129.86 15.9758C129.997 16.3716 130.253 16.7083 130.598 16.9451C130.957 17.1929 131.383 17.3187 131.821 17.3113C132.44 17.3483 133.044 17.119 133.481 16.6824C133.9 16.2015 134.115 15.5762 134.078 14.9399V14.274H134.022C133.77 14.6439 133.426 14.9436 133.022 15.1397C132.595 15.3506 132.125 15.4578 131.65 15.4541C130.753 15.4578 129.897 15.0731 129.304 14.3998C128.663 13.682 128.314 12.7461 128.337 11.7842C128.314 10.826 128.659 9.89739 129.304 9.18707C129.89 8.50635 130.75 8.11419 131.65 8.11789C132.125 8.11419 132.595 8.22148 133.022 8.43235C133.426 8.62843 133.77 8.9281 134.022 9.29805H134.078V8.33617H135.331V14.9288C135.483 16.7379 134.141 18.3287 132.329 18.4804C132.162 18.4952 131.991 18.4952 131.825 18.4841L131.821 18.4878ZM131.862 14.274C132.466 14.2925 133.044 14.0409 133.441 13.5859C134.293 12.5426 134.293 11.0443 133.441 10.001C133.048 9.54223 132.469 9.28696 131.862 9.29805C131.257 9.28696 130.679 9.54593 130.283 10.001C129.849 10.493 129.619 11.133 129.641 11.7879C129.615 12.4427 129.845 13.079 130.283 13.5674C130.679 14.0261 131.254 14.2851 131.862 14.2777V14.274Z" fill="#004D99"/>
<path d="M138.611 5.96474C138.615 6.20892 138.519 6.44199 138.341 6.61217C137.977 6.96733 137.395 6.96733 137.032 6.61217C136.676 6.26071 136.673 5.68358 137.025 5.32472C137.025 5.32472 137.028 5.32102 137.032 5.31732C137.395 4.96216 137.977 4.96216 138.341 5.31732C138.515 5.4875 138.615 5.72057 138.611 5.96474ZM138.341 8.33987V15.2248H137.032V8.33987H138.341Z" fill="#004D99"/>
<path d="M143.1 15.4542C142.147 15.4837 141.228 15.1064 140.572 14.4146C139.901 13.7043 139.545 12.7609 139.575 11.7879C139.545 10.8223 139.89 9.88259 140.542 9.16858C141.891 7.79233 144.101 7.77014 145.479 9.11308C146.132 9.88629 146.458 10.8815 146.395 11.8878L146.38 12.0283H140.909C140.902 12.6425 141.15 13.2307 141.591 13.6599C142.47 14.5071 143.871 14.4812 144.72 13.6044C144.879 13.4379 145.012 13.2492 145.112 13.042L146.276 13.6044C145.98 14.1704 145.528 14.6439 144.975 14.9695C144.404 15.3025 143.752 15.4727 143.092 15.4616L143.1 15.4542ZM141.013 10.9555H145.005C144.975 10.4967 144.764 10.0676 144.416 9.76791C144.015 9.43864 143.507 9.26846 142.989 9.29436C142.525 9.28326 142.073 9.44604 141.717 9.74571C141.354 10.0602 141.109 10.4819 141.017 10.9518L141.013 10.9555Z" fill="#004D99"/>
<path d="M152.989 13.3158C152.989 13.9225 152.689 14.4886 152.192 14.8326C151.614 15.2618 150.906 15.48 150.19 15.4505C149.534 15.4652 148.889 15.2766 148.345 14.9103C147.826 14.5663 147.429 14.0668 147.207 13.486L148.374 12.9939C148.526 13.3824 148.786 13.7154 149.123 13.9595C149.434 14.1852 149.812 14.3036 150.194 14.3036C150.561 14.3184 150.924 14.2259 151.239 14.0372C151.48 13.9188 151.64 13.6784 151.658 13.4083C151.658 12.968 151.317 12.6425 150.631 12.439L149.438 12.143C148.081 11.8064 147.407 11.1589 147.407 10.2045C147.392 9.60143 147.685 9.03539 148.181 8.69503C149.282 7.98841 150.683 7.93662 151.832 8.56184C152.303 8.82081 152.67 9.23147 152.878 9.72721L151.714 10.2045C151.58 9.91219 151.351 9.67172 151.069 9.52373C150.761 9.35725 150.416 9.27216 150.068 9.27586C149.746 9.27216 149.427 9.36095 149.153 9.53113C148.915 9.64952 148.76 9.88629 148.749 10.149C148.749 10.5411 149.123 10.8223 149.872 10.9925L150.924 11.2588C152.307 11.5918 153 12.2799 153 13.3195L152.989 13.3158Z" fill="#004D99"/>
<path d="M24.1016 5.16933H25.966V7.9958L25.8511 9.24996H25.966C26.1773 8.9096 26.4738 8.63213 26.8259 8.43975C27.2114 8.22517 27.6451 8.11789 28.0861 8.12529C28.8386 8.06609 29.5762 8.35466 30.084 8.9133C30.5436 9.53482 30.7734 10.2932 30.7326 11.0664V15.2433H28.8719V11.2884C28.8979 10.8963 28.7755 10.5041 28.5272 10.197C28.2789 9.94178 27.9305 9.80489 27.5746 9.82339C27.3374 9.81969 27.1039 9.87519 26.8926 9.98617C26.6925 10.0935 26.522 10.2451 26.3885 10.4264C26.2477 10.6225 26.1402 10.8445 26.0735 11.0812C25.9994 11.3402 25.966 11.6066 25.966 11.8767V15.2396H24.1053V5.16933H24.1016Z" fill="#004D99"/>
<path d="M38.861 13.5785C38.546 14.1334 38.1012 14.6032 37.56 14.9436C36.9596 15.3062 36.2627 15.4874 35.5622 15.4652C35.0581 15.4689 34.5577 15.3764 34.0907 15.1915C33.6533 15.0176 33.253 14.7549 32.9157 14.4257C32.5821 14.0964 32.319 13.7005 32.1411 13.264C31.952 12.7978 31.8594 12.2984 31.8631 11.7953C31.8631 11.3106 31.952 10.8297 32.1337 10.382C32.4821 9.50522 33.1641 8.79861 34.0314 8.42125C34.491 8.22147 34.9877 8.12158 35.4881 8.12898C35.9996 8.12158 36.5074 8.21407 36.9818 8.40275C37.3969 8.57293 37.7713 8.8319 38.0752 9.16116C38.3755 9.49413 38.6016 9.88258 38.7424 10.308C38.8981 10.7705 38.9759 11.2551 38.9685 11.7435V11.9136C38.9611 11.9654 38.9537 12.0172 38.9537 12.069C38.9426 12.1208 38.9388 12.1726 38.9388 12.2244H33.6904C33.7201 12.4797 33.7979 12.7239 33.9239 12.9495C34.0388 13.1456 34.1871 13.3158 34.365 13.4564C34.5355 13.5896 34.7319 13.6894 34.9395 13.7486C35.1471 13.8078 35.362 13.8411 35.577 13.8411C35.9514 13.8559 36.322 13.756 36.6371 13.5526C36.9114 13.3676 37.1375 13.1197 37.2969 12.8274L38.8462 13.5859L38.861 13.5785ZM37.1671 10.9074C37.1523 10.7668 37.1115 10.6262 37.0448 10.5004C36.967 10.3413 36.8595 10.2007 36.7335 10.0787C36.5852 9.94177 36.411 9.83079 36.222 9.75679C35.9885 9.668 35.7401 9.62361 35.4881 9.63101C35.11 9.62361 34.7394 9.742 34.4354 9.96767C34.1241 10.2044 33.9017 10.5337 33.7979 10.9111H37.1671V10.9074Z" fill="#004D99"/>
<path d="M40.1694 15.2396V5.16933H42.0338V15.2433H40.1694V15.2396Z" fill="#004D99"/>
<path d="M43.6239 15.2396V5.16933H45.4883V15.2433H43.6239V15.2396Z" fill="#004D99"/>
<path d="M53.6093 13.5785C53.2942 14.1334 52.8458 14.6032 52.3083 14.9436C51.7078 15.3062 51.011 15.4874 50.3105 15.4652C49.8064 15.4689 49.306 15.3764 48.839 15.1915C48.4016 15.0176 48.0013 14.7549 47.664 14.4257C47.3304 14.0964 47.0673 13.7005 46.8894 13.264C46.7003 12.7978 46.604 12.2984 46.6114 11.7953C46.6114 11.3106 46.7003 10.8297 46.8819 10.382C47.2304 9.50522 47.9124 8.79861 48.7797 8.42125C49.2393 8.22147 49.736 8.12158 50.2364 8.12898C50.7479 8.12158 51.2557 8.21407 51.7301 8.40275C52.1452 8.57293 52.5196 8.8319 52.8235 9.16116C53.1237 9.49413 53.3498 9.88258 53.4907 10.308C53.6464 10.7705 53.7242 11.2551 53.7168 11.7435V11.9136C53.7094 11.9654 53.702 12.0172 53.702 12.069C53.6908 12.1208 53.6871 12.1726 53.6871 12.2244H48.4387C48.4683 12.4797 48.5462 12.7239 48.6722 12.9495C48.7871 13.1456 48.9354 13.3158 49.1133 13.4564C49.2838 13.5896 49.4802 13.6894 49.6878 13.7486C49.8954 13.8078 50.1103 13.8411 50.3253 13.8411C50.6997 13.8559 51.0703 13.756 51.3854 13.5526C51.6597 13.3676 51.8858 13.1197 52.0451 12.8274L53.5982 13.5859L53.6093 13.5785ZM51.9154 10.9074C51.9006 10.7668 51.8598 10.6262 51.7931 10.5004C51.7153 10.3413 51.6078 10.2007 51.478 10.0787C51.3298 9.94177 51.1556 9.83079 50.9665 9.75679C50.733 9.668 50.4847 9.62361 50.2364 9.63101C49.8583 9.62361 49.4876 9.742 49.1837 9.96767C48.8723 10.2044 48.65 10.5337 48.5462 10.9111H51.9154V10.9074Z" fill="#004D99"/>
<path d="M56.6672 9.24625H56.7821C57.0008 8.89849 57.3047 8.61733 57.6642 8.42125C58.0534 8.21407 58.4908 8.11048 58.9319 8.11788C59.3248 8.11048 59.7177 8.18078 60.0846 8.32876C60.4034 8.45824 60.6814 8.66542 60.9038 8.92809C61.1261 9.20186 61.2892 9.51632 61.3856 9.85668C61.4968 10.2488 61.5524 10.6521 61.5487 11.059V15.2359H59.6843V11.2847C59.7177 10.8889 59.5991 10.493 59.3507 10.1785C59.0913 9.92698 58.7391 9.79379 58.3759 9.81969C58.1424 9.81599 57.9089 9.87148 57.7013 9.98247C57.5049 10.0898 57.3381 10.2377 57.2046 10.419C57.0601 10.6151 56.9563 10.8334 56.8933 11.0664C56.8192 11.3254 56.7858 11.5918 56.7858 11.8619V15.2396H54.9214V8.34726H56.6709V9.24625H56.6672Z" fill="#004D99"/>
<path d="M64.1173 7.41867C63.9579 7.41867 63.8023 7.38907 63.654 7.32618C63.5095 7.26699 63.3797 7.1819 63.2685 7.07461C63.161 6.96732 63.0721 6.84153 63.0128 6.70095C62.8905 6.40129 62.8905 6.06832 63.0128 5.76866C63.2833 5.15823 64.0024 4.88446 64.614 5.15453C64.7474 5.21372 64.866 5.29511 64.9698 5.395C65.4331 5.84265 65.4443 6.57887 64.9958 7.04131C64.9884 7.04871 64.9772 7.05981 64.9698 7.06721C64.7437 7.29288 64.4361 7.41867 64.1173 7.41497V7.41867ZM63.1944 15.2396V8.34726H65.0588V15.2396H63.1944Z" fill="#004D99"/>
<path d="M73.3058 13.4823C73.0093 14.0557 72.5719 14.5477 72.0345 14.9103C71.4266 15.2988 70.7149 15.4911 69.9922 15.4652C69.4844 15.4726 68.9803 15.3764 68.5059 15.1915C68.0685 15.0176 67.6719 14.7586 67.3383 14.4257C67.0084 14.0927 66.749 13.6968 66.571 13.264C66.382 12.7978 66.2856 12.2984 66.2931 11.7953C66.2893 11.2884 66.382 10.789 66.571 10.3191C66.7453 9.88258 67.0084 9.49042 67.3383 9.15746C67.6719 8.8282 68.0685 8.57293 68.5059 8.39905C68.9803 8.21407 69.4844 8.11788 69.9922 8.12528C70.7112 8.09938 71.4192 8.29176 72.0271 8.67282C72.5608 9.02058 72.9796 9.51262 73.2354 10.0935L71.5304 10.7964C71.3932 10.5041 71.1783 10.2525 70.9114 10.0713C70.626 9.89738 70.2998 9.81229 69.9662 9.82709C69.7253 9.82709 69.4881 9.87518 69.2694 9.96767C68.8209 10.1563 68.4725 10.5226 68.302 10.9814C68.113 11.5104 68.113 12.0875 68.302 12.6129C68.3872 12.8422 68.5244 13.0531 68.6949 13.2307C68.858 13.3972 69.0544 13.5304 69.2694 13.6228C69.4881 13.7153 69.7253 13.7634 69.9662 13.7634C70.3146 13.7745 70.6593 13.6857 70.9559 13.5045C71.2376 13.3195 71.46 13.0568 71.6045 12.7534L73.3095 13.486L73.3058 13.4823Z" fill="#004D99"/>
<path d="M0.0795898 10.3001C0.0795898 15.5448 4.34899 19.8001 9.61926 19.8001H10.2102C15.4768 19.8001 19.7498 15.5485 19.7498 10.3001C19.7498 5.05177 15.4768 0.800125 10.2102 0.800125H9.61926C4.34899 0.800125 0.0795898 5.05177 0.0795898 10.3001ZM6.88994 14.7173C6.88994 14.96 6.69051 15.1549 6.44675 15.1513H5.33878C5.09502 15.1513 4.89928 14.9563 4.89559 14.7173V5.88297C4.89559 5.64023 5.09502 5.44531 5.33878 5.44898H6.44675C6.69051 5.44898 6.88625 5.64391 6.88994 5.88297V14.7136V14.7173ZM14.9338 14.7173C14.9338 14.8938 14.8267 15.052 14.6642 15.1218C14.6088 15.1439 14.5497 15.1549 14.4907 15.1549H13.3827C13.1389 15.1549 12.9432 14.96 12.9395 14.721V11.8522C12.9395 11.5396 12.6847 11.2895 12.3707 11.2895H9.40874C9.16499 11.2895 8.96924 11.0946 8.96555 10.8555V9.75947C8.96555 9.51673 9.16499 9.32181 9.40874 9.32548H12.4003C12.6994 9.32548 12.9432 9.08642 12.9469 8.78851V5.89401C12.9469 5.77632 12.9949 5.66598 13.0761 5.58507C13.1611 5.50415 13.2719 5.45634 13.3901 5.45634H14.498C14.5571 5.45634 14.6162 5.46737 14.6716 5.48944C14.8341 5.55564 14.9412 5.71747 14.9412 5.89401V14.7246L14.9338 14.7173Z" fill="#004D99"/>
</svg>
