<svg width="193" height="29" viewBox="0 0 193 29" fill="none" xmlns="http://www.w3.org/2000/svg">
<path fill-rule="evenodd" clip-rule="evenodd" d="M12.148 23.6044C12.3483 24.1611 12.7012 24.6497 13.166 25.0136C13.6308 25.3775 14.1886 25.602 14.775 25.6611H14.7894C15.3708 25.6078 15.9256 25.3919 16.3909 25.0377C16.8561 24.6835 17.2131 24.2053 17.4213 23.6575L18.2633 21.8519L10.0775 4.42618L4.42165 7.07765L12.148 23.6044ZM22.782 23.6594C22.9898 24.2068 23.3464 24.6846 23.8111 25.0385C24.2759 25.3923 24.8302 25.608 25.411 25.6611H25.4216C26.0084 25.603 26.5668 25.3788 27.0319 25.0146C27.4969 24.6503 27.8495 24.161 28.0486 23.6034L35.676 7.08151L30.0172 4.43005L21.9275 21.8441L22.782 23.6594ZM25.411 29C24.3134 28.9661 23.2442 28.6414 22.3118 28.0587C21.3793 27.4761 20.6167 26.6563 20.1012 25.6823C19.5851 26.6562 18.8221 27.476 17.8894 28.0586C16.9566 28.6412 15.8873 28.9659 14.7894 29H14.7539C13.5436 28.9427 12.3746 28.5407 11.3832 27.8411C10.3918 27.1415 9.61888 26.1731 9.15473 25.0489L9.14896 25.0315L0 5.469L11.6722 0.00289672L20.0897 17.923L28.412 0L40.0784 5.46321L31.0476 25.0489C30.5838 26.1731 29.8111 27.1415 28.8198 27.8412C27.8285 28.5408 26.6596 28.9427 25.4495 29H25.411Z" fill="white"/>
<path fill-rule="evenodd" clip-rule="evenodd" d="M54.1613 25.302C54.85 25.253 55.5083 24.9975 56.0508 24.5685C56.5934 24.1395 56.9953 23.5568 57.2045 22.8958L61.4887 11.9848L58.0792 10.746L54.1613 21.6637L50.2385 10.746L46.8309 11.9848L51.1132 22.8958C51.3233 23.5571 51.726 24.14 52.2694 24.569C52.8128 24.9979 53.4718 25.2533 54.1613 25.302ZM77.8757 25.302C78.5644 25.253 79.2227 24.9975 79.7653 24.5685C80.3079 24.1395 80.7097 23.5568 80.9189 22.8958L85.2022 11.9848L81.7946 10.746L77.8728 21.6637L73.9539 10.746L70.5454 11.9848L74.8296 22.8958C75.0394 23.5566 75.4416 24.139 75.9842 24.5679C76.5269 24.9969 77.185 25.2525 77.8738 25.302M89.6007 17.7811C89.5653 18.3136 89.6391 18.8477 89.8176 19.3504C89.996 19.8531 90.2754 20.3136 90.6383 20.7033C91.0012 21.0931 91.44 21.4038 91.9273 21.6162C92.4147 21.8287 92.9403 21.9383 93.4716 21.9383C94.0029 21.9383 94.5285 21.8287 95.0159 21.6162C95.5032 21.4038 95.942 21.0931 96.3049 20.7033C96.6678 20.3136 96.9472 19.8531 97.1257 19.3504C97.3041 18.8477 97.3779 18.3136 97.3425 17.7811C97.3769 17.2493 97.3023 16.7161 97.1234 16.2144C96.9445 15.7127 96.665 15.2532 96.3022 14.8643C95.9394 14.4754 95.5011 14.1654 95.0143 13.9535C94.5275 13.7416 94.0026 13.6323 93.4721 13.6323C92.9416 13.6323 92.4167 13.7416 91.9299 13.9535C91.4431 14.1654 91.0047 14.4754 90.642 14.8643C90.2792 15.2532 89.9997 15.7127 89.8208 16.2144C89.6418 16.7161 89.5673 17.2493 89.6017 17.7811H89.6007ZM100.751 24.9331H97.2242V23.3544C96.7144 23.9894 96.064 24.496 95.325 24.8341C94.5859 25.1722 93.7785 25.3324 92.967 25.302C89.0452 25.302 86.0788 22.0731 86.0788 17.7811C86.0788 13.4892 89.0461 10.2593 92.967 10.2593C93.7796 10.2295 94.588 10.3913 95.3273 10.7317C96.0665 11.072 96.7162 11.5816 97.2242 12.2194V10.6407H100.741V24.9312L100.751 24.9331ZM168.19 16.5529H174.973C174.934 15.6953 174.567 14.8859 173.948 14.2938C173.329 13.7017 172.507 13.3726 171.652 13.3752C170.779 13.3556 169.932 13.675 169.287 14.2669C168.643 14.8588 168.25 15.6776 168.192 16.5529M178.598 17.7657C178.598 18.1993 178.573 18.6326 178.523 19.0634H168.228C168.391 19.959 168.874 20.7639 169.586 21.3272C170.298 21.8904 171.19 22.1732 172.095 22.1223C173.431 22.1612 174.731 21.684 175.727 20.7889L177.938 23.1343C176.27 24.6152 174.098 25.3915 171.874 25.301C170.886 25.352 169.898 25.1931 168.975 24.8347C168.053 24.4763 167.215 23.9265 166.518 23.221C165.821 22.5156 165.28 21.6705 164.93 20.7408C164.581 19.8111 164.43 18.8177 164.488 17.8255C164.488 13.325 167.427 10.2584 171.683 10.2584C175.782 10.2584 178.582 13.3105 178.604 17.7657M191.943 14.0627H186.447V19.2836C186.447 21.0679 187.082 21.8906 188.88 21.8906C189.874 21.7754 190.824 21.4166 191.647 20.8459L193 23.7986C191.629 24.7905 189.979 25.3172 188.29 25.302C184.767 25.302 182.961 23.2974 182.961 19.5945V14.0646H180.197V10.7373H182.945V6.3922H186.435V10.7373H191.93L191.943 14.0627ZM127.653 10.744L123.734 21.6618L120.223 11.8728C120.09 11.4071 119.81 10.9974 119.425 10.7057C119.04 10.4141 118.571 10.2563 118.089 10.2563C117.606 10.2563 117.137 10.4141 116.752 10.7057C116.367 10.9974 116.087 11.4071 115.955 11.8728L112.44 21.6618L108.509 10.746L105.106 11.9848L109.41 22.8958C109.575 23.5817 109.964 24.1921 110.516 24.6286C111.068 25.0651 111.75 25.3024 112.453 25.3024C113.155 25.3024 113.838 25.0651 114.39 24.6286C114.942 24.1921 115.331 23.5817 115.496 22.8958L118.082 16.3028L120.666 22.8958C120.831 23.5817 121.22 24.1921 121.772 24.6286C122.324 25.0651 123.006 25.3024 123.709 25.3024C124.411 25.3024 125.094 25.0651 125.646 24.6286C126.197 24.1921 126.587 23.5817 126.752 22.8958L131.055 11.9848L127.647 10.746L127.653 10.744ZM135.349 17.7802C135.315 18.312 135.39 18.8452 135.568 19.3469C135.747 19.8486 136.027 20.3081 136.39 20.697C136.752 21.0859 137.191 21.3959 137.678 21.6078C138.164 21.8197 138.689 21.929 139.22 21.929C139.75 21.929 140.275 21.8197 140.762 21.6078C141.249 21.3959 141.687 21.0859 142.05 20.697C142.413 20.3081 142.692 19.8486 142.871 19.3469C143.05 18.8452 143.125 18.312 143.09 17.7802C143.125 17.2484 143.05 16.7151 142.871 16.2134C142.692 15.7117 142.413 15.2522 142.05 14.8633C141.687 14.4744 141.249 14.1645 140.762 13.9526C140.275 13.7407 139.75 13.6313 139.22 13.6313C138.689 13.6313 138.164 13.7407 137.678 13.9526C137.191 14.1645 136.752 14.4744 136.39 14.8633C136.027 15.2522 135.747 15.7117 135.568 16.2134C135.39 16.7151 135.315 17.2484 135.349 17.7802ZM146.482 24.9312H142.966V23.3544C142.456 23.989 141.806 24.4954 141.067 24.8335C140.328 25.1716 139.52 25.332 138.709 25.302C134.786 25.302 131.82 22.0731 131.82 17.7811C131.82 13.4892 134.787 10.2593 138.708 10.2593C139.521 10.2297 140.329 10.3915 141.069 10.7319C141.808 11.0722 142.458 11.5817 142.966 12.2194V10.6407H146.483L146.482 24.9312Z" fill="white"/>
<path fill-rule="evenodd" clip-rule="evenodd" d="M150.24 24.9553H153.714V3.69729H150.24V24.9553ZM157.792 24.9553H161.266V3.69729H157.792V24.9553ZM64.2512 24.9553H67.7251V10.6581H64.2512V24.9553ZM68.2144 5.82348C68.2023 6.4084 67.9625 6.96526 67.5464 7.37463C67.1303 7.784 66.5711 8.01328 65.9887 8.01328C65.4062 8.01328 64.847 7.784 64.4309 7.37463C64.0148 6.96526 63.775 6.4084 63.7629 5.82348C63.7568 5.52596 63.8098 5.2302 63.9189 4.95353C64.028 4.67686 64.1909 4.42484 64.3982 4.21225C64.6055 3.99965 64.853 3.83075 65.1261 3.71545C65.3992 3.60014 65.6924 3.54075 65.9887 3.54075C66.2849 3.54075 66.5782 3.60014 66.8513 3.71545C67.1244 3.83075 67.3718 3.99965 67.5791 4.21225C67.7864 4.42484 67.9493 4.67686 68.0584 4.95353C68.1675 5.2302 68.2205 5.52596 68.2144 5.82348Z" fill="white"/>
</svg>
