<?xml version="1.0" encoding="utf-8"?>
<!-- Generator: Adobe Illustrator 26.5.0, SVG Export Plug-In . SVG Version: 6.00 Build 0)  -->
<svg version="1.1" id="Layer_1" xmlns="http://www.w3.org/2000/svg" xmlns:xlink="http://www.w3.org/1999/xlink" x="0px" y="0px"
	 viewBox="0 0 28.3 28.3" style="enable-background:new 0 0 28.3 28.3;" xml:space="preserve">
<style type="text/css">
	.st0{fill:none;stroke:#000000;stroke-width:1.5;stroke-linecap:round;stroke-linejoin:round;}
</style>
<g id="Group_4805" transform="translate(-197.549 -217.805)">
	<ellipse id="Ellipse_290" class="st0" cx="211.7" cy="235.1" rx="1.9" ry="1.9"/>
	<line id="Line_400" class="st0" x1="211.7" y1="237.1" x2="211.7" y2="239"/>
	<path id="Rectangle_3883" class="st0" d="M206.3,229.9h10.8c1.7,0,3.1,1.4,3.1,3v5.9c0,1.7-1.4,3-3.1,3h-10.8c-1.7,0-3.1-1.4-3.1-3
		v-5.9C203.2,231.3,204.6,229.9,206.3,229.9z"/>
	<path id="Rectangle_3961" class="st0" d="M211.7,222.1L211.7,222.1c2.4,0,4.3,1.9,4.3,4.3v3.5l0,0h-8.7l0,0v-3.5
		C207.4,224,209.3,222.1,211.7,222.1L211.7,222.1z"/>
</g>
</svg>
