<svg width="20" height="20" viewBox="0 0 20 20" fill="none" xmlns="http://www.w3.org/2000/svg">
    <g clip-path="url(#clip0_4901_15558)">
        <path
            d="M10 1.80469C12.6719 1.80469 12.9883 1.81641 14.0391 1.86328C15.0156 1.90625 15.543 2.07031 15.8945 2.20703C16.3594 2.38672 16.6953 2.60547 17.043 2.95313C17.3945 3.30469 17.6094 3.63672 17.7891 4.10156C17.9258 4.45313 18.0898 4.98438 18.1328 5.95703C18.1797 7.01172 18.1914 7.32813 18.1914 9.99609C18.1914 12.668 18.1797 12.9844 18.1328 14.0352C18.0898 15.0117 17.9258 15.5391 17.7891 15.8906C17.6094 16.3555 17.3906 16.6914 17.043 17.0391C16.6914 17.3906 16.3594 17.6055 15.8945 17.7852C15.543 17.9219 15.0117 18.0859 14.0391 18.1289C12.9844 18.1758 12.668 18.1875 10 18.1875C7.32812 18.1875 7.01172 18.1758 5.96094 18.1289C4.98438 18.0859 4.45703 17.9219 4.10547 17.7852C3.64062 17.6055 3.30469 17.3867 2.95703 17.0391C2.60547 16.6875 2.39062 16.3555 2.21094 15.8906C2.07422 15.5391 1.91016 15.0078 1.86719 14.0352C1.82031 12.9805 1.80859 12.6641 1.80859 9.99609C1.80859 7.32422 1.82031 7.00781 1.86719 5.95703C1.91016 4.98047 2.07422 4.45313 2.21094 4.10156C2.39062 3.63672 2.60937 3.30078 2.95703 2.95313C3.30859 2.60156 3.64062 2.38672 4.10547 2.20703C4.45703 2.07031 4.98828 1.90625 5.96094 1.86328C7.01172 1.81641 7.32812 1.80469 10 1.80469ZM10 0.00390625C7.28516 0.00390625 6.94531 0.015625 5.87891 0.0625C4.81641 0.109375 4.08594 0.28125 3.45312 0.527344C2.79297 0.785156 2.23438 1.125 1.67969 1.68359C1.12109 2.23828 0.78125 2.79688 0.523437 3.45313C0.277344 4.08984 0.105469 4.81641 0.0585938 5.87891C0.0117188 6.94922 0 7.28906 0 10.0039C0 12.7188 0.0117188 13.0586 0.0585938 14.125C0.105469 15.1875 0.277344 15.918 0.523437 16.5508C0.78125 17.2109 1.12109 17.7695 1.67969 18.3242C2.23438 18.8789 2.79297 19.2227 3.44922 19.4766C4.08594 19.7227 4.8125 19.8945 5.875 19.9414C6.94141 19.9883 7.28125 20 9.99609 20C12.7109 20 13.0508 19.9883 14.1172 19.9414C15.1797 19.8945 15.9102 19.7227 16.543 19.4766C17.1992 19.2227 17.7578 18.8789 18.3125 18.3242C18.8672 17.7695 19.2109 17.2109 19.4648 16.5547C19.7109 15.918 19.8828 15.1914 19.9297 14.1289C19.9766 13.0625 19.9883 12.7227 19.9883 10.0078C19.9883 7.29297 19.9766 6.95313 19.9297 5.88672C19.8828 4.82422 19.7109 4.09375 19.4648 3.46094C19.2187 2.79688 18.8789 2.23828 18.3203 1.68359C17.7656 1.12891 17.207 0.785156 16.5508 0.53125C15.9141 0.285156 15.1875 0.113281 14.125 0.0664063C13.0547 0.015625 12.7148 0.00390625 10 0.00390625Z"
            fill="currentColor"
        />
        <path
            d="M10 4.86719C7.16406 4.86719 4.86328 7.16797 4.86328 10.0039C4.86328 12.8398 7.16406 15.1406 10 15.1406C12.8359 15.1406 15.1367 12.8398 15.1367 10.0039C15.1367 7.16797 12.8359 4.86719 10 4.86719ZM10 13.3359C8.16016 13.3359 6.66797 11.8437 6.66797 10.0039C6.66797 8.16406 8.16016 6.67187 10 6.67187C11.8398 6.67187 13.332 8.16406 13.332 10.0039C13.332 11.8437 11.8398 13.3359 10 13.3359Z"
            fill="currentColor"
        />
        <path
            d="M16.5391 4.66406C16.5391 5.32813 16 5.86328 15.3398 5.86328C14.6758 5.86328 14.1406 5.32422 14.1406 4.66406C14.1406 4 14.6797 3.46484 15.3398 3.46484C16 3.46484 16.5391 4.00391 16.5391 4.66406Z"
            fill="currentColor"
        />
    </g>
    <defs>
        <clipPath id="clip0_4901_15558">
            <rect width="20" height="20" fill="currentColor" transform="translate(0 0.00390625)" />
        </clipPath>
    </defs>
</svg>
