<svg width="20" height="20" viewBox="0 0 20 20" fill="none" xmlns="http://www.w3.org/2000/svg">
    <g clip-path="url(#clip0_4901_15550)">
        <path
            d="M18.5195 0.00390625H1.47656C0.660156 0.00390625 0 0.648438 0 1.44531V18.5586C0 19.3555 0.660156 20.0039 1.47656 20.0039H18.5195C19.3359 20.0039 20 19.3555 20 18.5625V1.44531C20 0.648438 19.3359 0.00390625 18.5195 0.00390625ZM5.93359 17.0469H2.96484V7.5H5.93359V17.0469ZM4.44922 6.19922C3.49609 6.19922 2.72656 5.42969 2.72656 4.48047C2.72656 3.53125 3.49609 2.76172 4.44922 2.76172C5.39844 2.76172 6.16797 3.53125 6.16797 4.48047C6.16797 5.42578 5.39844 6.19922 4.44922 6.19922ZM17.043 17.0469H14.0781V12.4062C14.0781 11.3008 14.0586 9.875 12.5352 9.875C10.9922 9.875 10.7578 11.082 10.7578 12.3281V17.0469H7.79688V7.5H10.6406V8.80469H10.6797C11.0742 8.05469 12.043 7.26172 13.4844 7.26172C16.4883 7.26172 17.043 9.23828 17.043 11.8086V17.0469Z"
            fill="currentColor"
        />
    </g>
    <defs>
        <clipPath id="clip0_4901_15550">
            <rect width="20" height="20" fill="currentColor" transform="translate(0 0.00390625)" />
        </clipPath>
    </defs>
</svg>
