<svg width="28" height="28" viewBox="0 0 28 28" fill="none" xmlns="http://www.w3.org/2000/svg">
    <path
        d="M27.7211 8.54949C27.7211 8.54949 27.4477 6.66917 26.6055 5.84353C25.5391 4.75688 24.3469 4.75155 23.8 4.68763C19.8844 4.41064 14.0055 4.41064 14.0055 4.41064H13.9945C13.9945 4.41064 8.11562 4.41064 4.2 4.68763C3.65313 4.75155 2.46094 4.75688 1.39453 5.84353C0.552344 6.66917 0.284375 8.54949 0.284375 8.54949C0.284375 8.54949 0 10.7601 0 12.9653V15.0321C0 17.2373 0.278906 19.4479 0.278906 19.4479C0.278906 19.4479 0.552344 21.3283 1.38906 22.1539C2.45547 23.2405 3.85547 23.2033 4.47891 23.3204C6.72109 23.5282 14 23.5921 14 23.5921C14 23.5921 19.8844 23.5815 23.8 23.3098C24.3469 23.2459 25.5391 23.2405 26.6055 22.1539C27.4477 21.3283 27.7211 19.4479 27.7211 19.4479C27.7211 19.4479 28 17.2427 28 15.0321V12.9653C28 10.7601 27.7211 8.54949 27.7211 8.54949ZM11.107 17.541V9.87584L18.6703 13.7217L11.107 17.541Z"
        fill="currentColor"
    />
</svg>
